<?xml version="1.0" standalone="no"?>
<!DOCTYPE svg PUBLIC "-//W3C//DTD SVG 20010904//EN"
 "http://www.w3.org/TR/2001/REC-SVG-20010904/DTD/svg10.dtd">
<svg version="1.0" xmlns="http://www.w3.org/2000/svg"
 width="500.000000pt" height="500.000000pt" viewBox="0 0 500.000000 500.000000"
 preserveAspectRatio="xMidYMid meet">

<g transform="translate(0.000000,500.000000) scale(0.100000,-0.100000)"
fill="#000000" stroke="none">
<path d="M2558 4530 c-81 -25 -123 -74 -123 -144 0 -38 -4 -45 -54 -85 -64
-52 -106 -115 -129 -193 -11 -37 -22 -58 -32 -58 -8 0 -24 -3 -35 -6 -15 -4
-23 3 -34 27 -22 51 -72 100 -125 125 -62 29 -72 22 -78 -53 -4 -51 -9 -60
-44 -91 -21 -18 -70 -54 -107 -79 -38 -25 -96 -69 -130 -98 l-60 -52 -44 29
c-73 49 -158 79 -247 85 -77 5 -83 8 -98 34 -37 63 -140 82 -216 39 -23 -13
-49 -33 -56 -45 -65 -99 -23 -234 86 -279 50 -21 81 -20 127 4 46 23 75 57 91
106 9 25 17 34 34 34 40 0 140 -31 181 -55 74 -45 72 -40 37 -79 -53 -60 -112
-153 -153 -241 -39 -84 -89 -240 -89 -277 0 -17 -5 -19 -27 -14 -16 3 -59 10
-97 17 -171 28 -353 -66 -424 -219 -24 -50 -27 -69 -27 -162 1 -89 5 -116 27
-178 37 -99 84 -174 164 -261 87 -93 173 -155 304 -219 156 -76 243 -96 422
-96 l148 -1 0 -45 c1 -105 51 -250 117 -338 28 -38 25 -43 -34 -62 -63 -19
-79 -43 -102 -150 -12 -52 -21 -95 -21 -97 0 -2 -10 -3 -21 -3 -13 0 -45 25
-83 64 -34 35 -71 66 -82 70 -30 9 -152 -31 -178 -59 -19 -21 -27 -22 -94 -17
-68 4 -77 2 -138 -29 -71 -36 -124 -93 -145 -156 -28 -86 14 -227 78 -266 39
-23 40 -29 9 -98 -43 -95 -43 -101 7 -142 79 -65 123 -82 207 -81 85 1 161 29
221 82 26 22 41 29 61 25 15 -3 62 7 108 22 99 33 117 53 100 115 -12 45 -7
61 12 42 30 -30 69 -9 101 53 11 21 17 26 20 15 3 -8 11 -33 19 -55 l14 -40
55 1 c63 0 246 55 281 83 19 16 23 27 21 69 -2 47 0 51 29 63 30 12 32 11 60
-24 16 -20 52 -53 81 -73 61 -44 225 -123 315 -153 60 -19 94 -42 264 -178 26
-21 53 -38 60 -38 13 0 33 65 68 223 16 74 31 111 74 182 54 90 116 225 116
254 0 20 23 32 127 62 110 32 166 64 200 115 l26 40 24 -23 24 -22 127 42 c70
23 134 42 142 42 7 0 33 9 57 21 24 12 120 47 213 79 94 32 177 63 185 70 19
16 19 42 -1 126 -20 87 -29 103 -65 116 -16 6 -29 17 -29 27 0 22 -39 132 -52
149 -8 9 -7 20 2 38 12 22 11 35 -13 107 -37 112 -37 112 -96 110 -46 -2 -329
-91 -355 -112 -6 -5 -83 -32 -171 -60 -217 -70 -215 -69 -215 -96 l0 -23 -49
16 c-47 14 -49 17 -44 43 16 80 -41 287 -99 362 l-29 38 48 21 c67 30 107 60
192 147 91 94 134 157 199 291 72 149 86 208 86 365 0 109 -4 140 -22 190 -29
77 -94 176 -147 223 -101 89 -286 96 -421 17 -41 -24 -144 -130 -144 -148 0
-5 -29 22 -65 61 -73 79 -215 176 -327 223 -73 32 -244 79 -285 79 -13 0 -23
5 -23 10 0 36 109 200 132 200 5 0 21 -9 35 -19 13 -11 44 -23 68 -27 55 -8
120 21 155 68 28 38 39 123 20 168 -13 30 -91 90 -119 90 -9 0 -25 2 -36 5
-11 2 -32 0 -47 -5z m100 -102 c21 -21 28 -60 16 -92 -3 -9 -10 -13 -15 -10
-5 3 -6 -1 -3 -9 5 -14 -34 -37 -62 -37 -9 0 -29 13 -45 29 -83 84 22 199 109
119z m-577 -423 c10 -22 19 -53 19 -68 0 -15 7 -38 15 -50 19 -29 17 -131 -2
-115 -10 8 -13 6 -13 -5 0 -8 5 -17 12 -19 7 -3 -2 -19 -23 -40 -42 -42 -75
-61 -89 -53 -6 3 -10 1 -10 -6 0 -20 -95 -3 -137 25 -21 14 -47 39 -56 56 -20
34 -29 37 -47 15 -14 -17 -6 -59 20 -103 24 -39 125 -92 175 -92 111 0 214 71
253 175 27 70 27 91 2 162 -11 31 -17 60 -14 64 3 5 22 9 43 9 35 0 39 -3 44
-30 5 -21 14 -31 33 -36 30 -8 47 10 38 40 -6 17 -2 18 43 12 100 -13 236 -58
338 -113 51 -27 132 -93 213 -172 64 -62 87 -94 125 -171 59 -118 100 -272 95
-352 -3 -32 -1 -58 2 -58 8 0 -7 -142 -21 -195 -19 -73 -51 -155 -59 -150 -5
3 -6 -3 -4 -12 3 -10 -11 -44 -31 -77 -19 -32 -35 -62 -35 -67 0 -4 -5 -11
-12 -15 -7 -5 -8 -3 -3 6 5 9 4 11 -4 6 -6 -4 -9 -12 -6 -17 3 -5 1 -14 -4
-21 -6 -7 -34 -41 -62 -76 -36 -44 -56 -61 -68 -57 -8 3 -12 3 -8 -1 9 -10
-13 -35 -24 -28 -5 3 -8 0 -7 -7 4 -18 -87 -84 -177 -128 -131 -64 -225 -85
-397 -85 -97 -1 -151 3 -158 10 -8 8 -9 14 -1 18 6 4 11 2 11 -3 0 -6 10 -11
23 -10 15 0 17 2 7 6 -8 3 -18 11 -22 17 -4 6 -26 10 -50 9 -30 -2 -38 1 -28
7 12 8 10 10 -8 10 -19 0 -21 -3 -13 -19 9 -16 8 -18 -9 -14 -11 3 -20 10 -20
15 0 5 -4 7 -10 3 -9 -6 -44 10 -68 33 -7 7 -18 10 -23 7 -5 -4 -9 -1 -9 5 0
7 8 9 19 5 11 -3 22 -2 24 3 7 11 -34 9 -52 -2 -10 -6 -12 -5 -7 2 3 6 -2 16
-13 21 -29 16 -38 13 -15 -5 18 -15 18 -15 -3 -4 -12 5 -28 19 -36 30 -8 11
-17 17 -20 13 -4 -3 -7 -1 -7 6 0 7 -4 9 -10 6 -5 -3 -10 -1 -10 5 0 6 -4 9
-9 5 -6 -3 -14 2 -19 11 -5 9 -13 16 -18 16 -21 2 -84 52 -130 105 -70 81 -85
105 -73 119 7 8 5 11 -8 10 -33 -2 -89 128 -123 285 -17 75 -8 304 15 384 27
98 149 319 225 408 4 4 23 -1 43 -13 l36 -21 11 21 c8 16 9 30 1 52 -6 17 -11
32 -11 34 0 13 104 103 176 151 101 69 132 97 159 147 18 34 20 35 39 18 10
-9 27 -35 37 -57z m-929 -85 c26 -27 30 -36 25 -68 -7 -41 -55 -92 -86 -92
-31 0 -80 48 -87 84 -6 35 15 90 38 99 38 15 81 6 110 -23z m2381 -166 c54
-38 100 -99 128 -171 20 -50 23 -77 24 -188 0 -118 -3 -138 -29 -215 -34 -102
-52 -138 -112 -231 -58 -89 -162 -201 -183 -197 -20 4 -21 30 -2 36 8 3 11 0
8 -5 -3 -5 0 -10 8 -10 8 0 13 3 10 5 -3 3 3 11 13 19 16 12 16 13 -2 6 -16
-5 -18 -3 -13 13 7 18 6 18 -9 -1 -16 -20 -16 -20 -9 3 4 13 2 22 -4 22 -6 0
-12 -6 -12 -12 -1 -7 -2 -20 -3 -28 0 -9 -10 -15 -25 -14 -21 1 -22 -1 -8 -11
15 -11 14 -13 -8 -23 -14 -6 -25 -16 -25 -22 0 -6 -4 -8 -10 -5 -5 3 -10 2
-10 -4 0 -5 5 -13 10 -16 6 -3 10 -1 10 5 0 6 4 8 10 5 6 -4 7 1 3 11 -5 14
-3 16 11 11 9 -4 15 -3 12 2 -3 5 1 11 9 15 8 3 17 1 20 -4 7 -12 -31 -50 -50
-50 -8 0 -15 -3 -15 -8 0 -4 -10 -13 -22 -21 -21 -13 -22 -13 -9 3 23 28 -2
43 -28 17 -22 -22 -37 -26 -45 -13 -3 5 6 36 20 69 99 246 65 630 -71 809
l-25 32 43 59 c77 104 159 146 275 140 61 -3 80 -9 115 -33z m-2353 -683 l65
-17 -3 -35 c-13 -146 75 -411 184 -555 43 -56 158 -164 217 -204 20 -14 37
-28 37 -32 0 -3 -19 -4 -42 -3 -181 15 -254 15 -273 0 -24 -17 -4 -20 27 -4
16 9 19 8 16 -3 -2 -7 -17 -19 -33 -27 -25 -12 -30 -12 -40 3 -13 17 -30 23
-20 6 10 -16 -3 -12 -89 29 -100 48 -124 65 -106 76 9 5 11 4 6 -3 -5 -8 -1
-10 10 -5 10 4 15 2 11 -3 -3 -6 4 -16 16 -24 19 -12 21 -11 10 2 -7 8 -10 17
-7 21 5 5 -30 20 -49 22 -4 0 -11 5 -15 10 -4 6 -14 11 -22 13 -10 1 -9 -2 4
-13 11 -8 15 -15 8 -15 -6 0 -18 10 -26 22 -9 12 -16 19 -16 14 0 -7 -41 24
-96 73 -33 30 -130 180 -152 236 -63 160 -19 318 106 388 90 50 162 58 272 28z
m2034 -591 c42 -77 76 -177 76 -223 0 -37 -6 -48 -42 -84 -24 -23 -54 -47 -68
-53 -81 -35 -145 -77 -150 -99 -5 -20 -25 -30 -155 -73 -110 -36 -156 -57
-174 -76 -18 -20 -31 -25 -60 -23 -21 1 -88 -14 -161 -38 -167 -53 -160 -49
-167 -83 -3 -16 -16 -36 -29 -45 -22 -14 -26 -13 -59 7 -27 17 -55 23 -123 26
-48 2 -109 10 -137 17 -46 12 -52 17 -77 68 -45 88 -63 349 -25 349 29 -1 36
-19 39 -100 3 -81 4 -85 30 -98 89 -42 362 -62 478 -34 141 34 242 68 320 107
109 55 261 155 323 214 55 53 137 157 137 175 0 7 -25 44 -54 83 -51 65 -54
71 -38 86 15 16 19 14 53 -19 20 -20 49 -58 63 -84z m1021 -200 c9 -27 14 -54
10 -59 -3 -6 -44 -22 -90 -38 -47 -15 -85 -32 -85 -39 0 -13 28 -84 33 -84 2
0 37 11 77 25 40 14 76 23 78 20 7 -7 41 -109 37 -113 -1 -2 -20 -5 -41 -8
-21 -3 -43 -9 -50 -15 -7 -6 -18 -8 -24 -4 -5 3 -10 1 -10 -4 0 -6 -6 -11 -14
-11 -12 0 -12 -8 2 -50 9 -27 21 -50 28 -50 7 0 50 14 95 30 45 17 84 28 88
25 3 -3 10 -25 16 -49 l11 -42 -80 -25 c-170 -51 -201 -64 -198 -79 2 -10 0
-12 -7 -5 -6 6 -28 60 -50 120 -21 61 -64 175 -96 255 -31 79 -53 146 -49 148
70 28 273 100 286 101 11 1 22 -14 33 -49z m-361 -144 c9 -27 16 -51 16 -52 0
-1 -12 -4 -27 -7 -26 -4 -144 -45 -151 -52 -7 -6 31 -85 42 -85 6 0 42 9 80
20 38 11 71 19 71 17 12 -14 35 -111 29 -116 -5 -4 -36 -16 -69 -26 -33 -11
-63 -22 -67 -25 -5 -3 0 -25 9 -48 12 -32 20 -41 32 -36 13 5 162 53 168 54 0
0 10 -27 21 -60 12 -33 19 -60 17 -60 -2 0 -11 -3 -21 -7 -14 -5 -16 -3 -11
11 6 14 4 17 -10 11 -10 -3 -51 -15 -91 -26 -88 -25 -145 -47 -154 -62 -4 -7
-12 1 -18 18 -7 17 -27 71 -47 120 -19 50 -40 111 -48 136 -7 26 -30 91 -50
144 -43 110 -45 104 45 131 169 52 206 62 211 56 4 -4 14 -29 23 -56z m-2430
43 c-4 -7 0 -9 12 -6 60 17 69 18 54 8 -12 -9 -10 -11 10 -12 24 -1 23 -1 -5
-10 -37 -11 -113 0 -93 13 9 7 3 8 -17 4 -22 -5 -26 -4 -15 4 21 14 63 13 54
-1z m2001 -143 c98 -45 132 -126 86 -203 l-20 -31 34 -6 c51 -10 91 -48 104
-100 10 -42 7 -76 -8 -76 -3 0 -17 -18 -30 -40 -28 -44 -93 -84 -176 -105 -31
-8 -67 -22 -81 -31 -13 -9 -26 -15 -28 -13 -14 16 -81 179 -101 244 -22 75
-93 279 -109 317 -6 14 6 21 71 42 104 33 190 34 258 2z m-341 -153 c22 -66
21 -69 -29 -83 -25 -7 -45 -19 -45 -26 0 -7 12 -44 26 -81 54 -143 114 -314
114 -325 0 -5 -7 -7 -16 -4 -8 3 -13 2 -10 -3 3 -4 -13 -14 -36 -20 -50 -15
-49 -16 -95 114 -17 50 -45 130 -62 178 -17 49 -31 95 -31 103 0 18 -9 18 -53
-1 -20 -8 -41 -15 -47 -15 -5 0 -21 23 -35 50 l-25 50 27 11 c54 22 278 97
290 98 6 1 18 -20 27 -46z m-369 -143 c54 -34 80 -84 79 -157 0 -40 -6 -70
-18 -87 -16 -26 -16 -28 6 -55 13 -15 51 -50 85 -77 34 -26 59 -52 57 -56 -3
-5 -9 -6 -14 -3 -5 3 -20 0 -32 -7 -13 -7 -27 -13 -33 -13 -5 -1 -9 -6 -7 -13
3 -17 -14 -15 -33 5 -9 9 -47 38 -83 65 -61 44 -88 52 -110 33 -2 -2 8 -35 22
-75 14 -39 26 -76 26 -81 0 -10 -90 -52 -97 -45 -14 14 -200 526 -191 526 2 0
48 16 103 35 114 40 181 42 240 5z m1265 -84 c0 -2 -7 -7 -16 -10 -8 -3 -12
-2 -9 4 6 10 25 14 25 6z m-1680 -175 c36 -41 73 -86 82 -100 10 -14 51 -69
92 -121 41 -52 73 -96 72 -98 -2 -1 -27 -9 -57 -17 l-54 -15 -42 46 c-41 44
-43 45 -80 35 -26 -7 -39 -7 -44 0 -5 8 -18 7 -45 -2 -50 -17 -51 -18 -34 -30
13 -8 13 -11 -1 -19 -12 -7 -15 -21 -11 -63 l4 -54 -46 -18 c-26 -10 -49 -15
-53 -11 -13 13 -15 245 -4 396 15 190 18 206 45 218 18 8 28 3 66 -32 25 -22
74 -74 110 -115z m-332 -176 c101 -303 101 -302 68 -311 -14 -3 -33 -4 -41 0
-8 3 -15 1 -15 -4 0 -6 -6 -10 -13 -10 -7 0 -28 49 -50 118 -21 64 -41 123
-46 131 -6 9 -15 -11 -30 -60 -32 -110 -52 -159 -62 -159 -11 0 -52 29 -137
98 -53 42 -69 51 -57 32 4 -6 24 -68 44 -139 l38 -129 -41 -16 c-22 -8 -47
-16 -54 -18 -9 -2 -26 39 -53 132 -21 74 -59 196 -84 270 -25 74 -45 138 -45
141 0 3 18 11 40 18 l39 12 123 -96 c139 -107 135 -107 163 -6 53 184 66 216
93 232 15 9 30 13 34 10 3 -3 42 -114 86 -246z m1479 149 c-3 -3 -12 -4 -19
-1 -8 3 -5 6 6 6 11 1 17 -2 13 -5z m-2147 -128 c41 -15 41 -16 16 -78 l-18
-46 -54 5 c-60 6 -104 -13 -104 -47 0 -27 24 -37 110 -42 94 -6 158 -33 196
-84 25 -32 29 -46 29 -100 0 -60 -2 -64 -39 -99 -21 -19 -40 -35 -42 -35 -2 0
-20 -12 -41 -26 -38 -26 -38 -27 -8 -20 28 6 29 5 11 -9 -11 -8 -34 -15 -50
-14 -27 0 -28 2 -11 10 14 6 1 8 -45 6 -36 -1 -68 -6 -72 -12 -5 -6 -8 -5 -8
3 0 6 -8 12 -18 12 -10 0 -28 7 -40 16 -20 14 -21 17 -8 42 7 15 16 39 19 53
l7 26 52 -18 c29 -10 63 -18 76 -19 36 0 79 27 86 55 7 28 -8 65 -27 66 -180
9 -243 35 -279 116 -55 124 36 254 177 252 28 0 66 -6 85 -13z m1905 -82 c-44
-107 -118 -168 -265 -221 l-65 -23 -20 23 c-16 18 -30 22 -68 20 -26 -1 -45 2
-42 7 6 10 -30 20 -73 20 -19 0 -31 -4 -27 -10 3 -6 -1 -7 -9 -4 -9 3 -14 10
-11 14 3 5 -4 6 -14 3 -28 -7 -19 -33 17 -49 38 -16 43 -28 6 -14 -45 18 -65
31 -59 40 3 6 -1 7 -9 4 -8 -3 -23 -1 -32 4 -15 8 0 15 71 37 119 36 135 47
135 90 0 19 3 35 6 35 3 0 25 -12 50 -26 l44 -26 66 24 c36 12 74 31 84 40 26
25 70 4 70 -34 0 -15 -5 -30 -10 -33 -6 -4 -5 -12 4 -21 15 -15 30 -19 23 -6
-2 4 8 18 21 31 15 14 23 17 19 8 -3 -9 0 -21 8 -27 11 -9 12 -7 8 12 -4 18
-2 20 5 9 9 -12 13 -9 22 15 7 16 16 36 20 45 5 10 4 22 -3 29 -8 9 -8 11 -1
7 7 -4 17 0 24 8 20 25 22 10 5 -31z m-578 -200 c-3 -3 -12 -4 -19 -1 -8 3 -5
6 6 6 11 1 17 -2 13 -5z m411 -164 c-6 -87 -16 -91 -82 -35 -30 27 -53 52 -50
57 3 4 20 8 37 8 18 1 43 7 57 15 39 23 43 19 38 -45z"/>
<path d="M2056 3865 c-4 -15 -5 -30 -2 -33 9 -8 46 30 46 47 0 14 -2 14 -10 1
-8 -12 -12 -13 -19 -2 -6 10 -10 7 -15 -13z"/>
<path d="M2486 3810 c-39 -12 -66 -39 -66 -66 0 -35 27 -44 74 -27 28 10 59
13 98 8 51 -5 58 -4 68 15 28 53 -82 97 -174 70z"/>
<path d="M2044 3717 c-18 -12 -39 -27 -49 -32 -15 -9 -14 -11 8 -13 18 -1 32
8 51 33 15 19 26 35 24 34 -2 0 -17 -10 -34 -22z"/>
<path d="M1895 3670 c-3 -5 1 -10 10 -10 9 0 13 5 10 10 -3 6 -8 10 -10 10 -2
0 -7 -4 -10 -10z"/>
<path d="M2561 3649 c-150 -29 -274 -169 -301 -340 -19 -127 20 -244 117 -346
85 -90 143 -116 268 -121 89 -4 107 -1 158 20 31 13 79 45 106 71 106 102 137
184 129 339 -6 106 -35 171 -109 252 -105 115 -221 154 -368 125z m217 -85
c63 -31 136 -110 171 -184 22 -46 26 -69 26 -140 0 -112 -26 -170 -107 -245
-98 -91 -222 -110 -339 -52 -80 39 -124 83 -161 162 -88 189 -13 394 171 466
72 28 175 25 239 -7z"/>
<path d="M2544 3507 c-58 -31 -109 -76 -130 -117 -28 -52 -26 -181 3 -235 32
-62 103 -121 164 -139 66 -20 93 -20 155 0 135 45 212 214 155 340 -22 49 -41
64 -41 34 0 -12 -15 -37 -34 -56 -43 -43 -90 -46 -135 -8 -53 44 -58 119 -11
169 11 12 20 24 20 28 0 17 -107 5 -146 -16z m320 -283 c9 -8 16 -18 16 -20 0
-15 -23 -45 -41 -54 -46 -25 -97 53 -51 79 25 15 58 13 76 -5z m-261 -75 c14
-23 0 -67 -24 -74 -57 -18 -101 34 -63 76 21 24 72 23 87 -2z"/>
<path d="M1598 3527 c-54 -41 -91 -103 -77 -129 14 -25 25 -23 71 16 22 19 64
44 94 56 42 18 54 27 54 44 0 57 -75 64 -142 13z"/>
<path d="M1740 3396 c-85 -18 -147 -55 -211 -125 -82 -89 -103 -146 -104 -282
0 -104 1 -107 40 -183 49 -96 139 -185 211 -211 27 -9 90 -19 139 -22 81 -5
97 -3 153 20 118 48 191 130 231 261 28 91 27 159 -5 255 -47 142 -167 254
-305 286 -78 17 -76 17 -149 1z m183 -82 c62 -21 155 -112 191 -186 73 -150
27 -329 -112 -435 -54 -41 -109 -56 -192 -51 -123 7 -230 79 -286 194 -26 54
-29 68 -28 159 1 108 10 139 63 212 34 47 90 88 148 109 52 18 160 17 216 -2z"/>
<path d="M1755 3261 c-46 -12 -107 -46 -137 -78 -43 -44 -61 -99 -61 -181 1
-130 64 -213 196 -258 154 -52 327 76 327 242 0 47 -15 103 -34 129 -13 17
-14 16 -31 -19 -61 -128 -242 -54 -205 85 7 23 21 46 37 56 l26 17 -24 7 c-31
9 -57 9 -94 0z m256 -301 c29 -16 26 -67 -6 -82 -38 -17 -75 3 -75 41 0 43 39
63 81 41z m-270 -70 c22 -12 26 -59 7 -78 -17 -17 -73 -15 -88 3 -17 21 -4 64
23 75 30 12 35 12 58 0z"/>
<path d="M3092 2889 c-11 -29 -24 -79 -16 -61 3 6 12 12 19 12 17 0 29 50 16
63 -7 7 -13 3 -19 -14z"/>
<path d="M2876 2870 c-37 -11 -83 -55 -90 -86 -9 -33 18 -80 56 -100 34 -18
109 -14 134 7 19 15 18 -1 -2 -29 -19 -28 -5 -29 19 -2 10 12 23 18 29 14 7
-4 8 -3 4 4 -3 6 3 16 14 22 11 6 20 20 20 30 0 11 6 29 12 40 9 15 10 22 1
31 -8 8 -15 4 -27 -17 l-15 -29 -1 26 c0 28 -38 68 -83 87 -31 14 -31 13 -71
2z"/>
<path d="M2563 2758 c-6 -7 -16 -30 -22 -51 -28 -86 -136 -140 -238 -119 -29
6 -65 21 -82 33 -33 24 -74 21 -85 -7 -18 -47 59 -105 168 -125 87 -16 164 7
249 74 41 32 87 112 87 150 0 43 -54 74 -77 45z"/>
<path d="M1455 2629 c-4 -6 -5 -12 -2 -15 2 -3 7 2 10 11 7 17 1 20 -8 4z"/>
<path d="M2933 2607 c-11 -12 -23 -29 -27 -37 -4 -8 3 -3 17 11 13 14 30 28
37 31 9 3 10 7 3 11 -5 3 -19 -4 -30 -16z"/>
<path d="M1845 2528 c-26 -15 -58 -56 -67 -85 -8 -28 40 -126 59 -119 7 3 15
1 19 -5 4 -7 12 -5 22 4 10 8 31 22 47 30 50 26 85 65 85 96 0 67 -101 116
-165 79z"/>
<path d="M1570 2516 c0 -2 8 -10 18 -17 15 -13 16 -12 3 4 -13 16 -21 21 -21
13z"/>
<path d="M2765 2449 c-33 -27 -63 -49 -67 -49 -14 0 -8 -18 8 -24 8 -3 12 -2
9 4 -3 5 9 16 27 25 l33 16 -24 -21 c-16 -13 -18 -20 -9 -20 19 0 48 32 48 53
0 9 5 19 12 23 6 4 8 3 4 -4 -3 -6 -2 -13 3 -17 6 -3 8 4 6 17 -3 12 1 25 7
29 7 5 10 10 8 12 -3 3 -32 -17 -65 -44z"/>
<path d="M2647 2377 c-15 -10 -12 -12 18 -13 19 0 34 0 32 1 -1 0 -9 6 -18 13
-12 9 -19 9 -32 -1z"/>
<path d="M2519 2320 c-9 -6 -6 -8 14 -6 32 3 43 11 18 13 -9 1 -24 -2 -32 -7z"/>
<path d="M2450 2295 c-23 -9 -28 -14 -15 -14 11 0 31 6 45 14 31 18 16 18 -30
0z"/>
<path d="M2495 2280 c3 -5 11 -10 16 -10 6 0 7 5 4 10 -3 6 -11 10 -16 10 -6
0 -7 -4 -4 -10z"/>
<path d="M2275 2263 c-70 -8 -95 -14 -95 -23 0 -6 7 -10 15 -10 16 0 10 -26
-8 -33 -7 -2 0 -3 16 -1 15 2 27 -1 27 -8 0 -7 -16 -9 -47 -5 -26 3 -40 2 -32
-3 7 -4 40 -10 71 -14 66 -7 115 8 97 31 -9 10 -6 13 12 14 21 1 20 2 -6 9
l-30 8 35 2 c19 1 29 4 22 7 -10 4 -9 8 5 19 16 12 15 13 -17 12 -19 0 -48 -3
-65 -5z m-8 -29 c-3 -3 -12 -4 -19 -1 -8 3 -5 6 6 6 11 1 17 -2 13 -5z m6 -61
c-7 -2 -19 -2 -25 0 -7 3 -2 5 12 5 14 0 19 -2 13 -5z"/>
<path d="M1960 2250 c24 -15 2 -24 -27 -11 -26 10 -27 10 -9 -4 21 -16 48 -20
60 -8 4 4 24 7 44 6 32 -2 29 0 -18 12 -66 17 -69 17 -50 5z"/>
<path d="M2405 2240 c-8 -13 15 -24 27 -12 6 6 4 11 -6 15 -8 3 -18 2 -21 -3z"/>
<path d="M1146 3843 c-6 -14 -5 -15 5 -6 7 7 10 15 7 18 -3 3 -9 -2 -12 -12z"/>
<path d="M3419 2883 c-13 -16 -12 -17 4 -4 9 7 17 15 17 17 0 8 -8 3 -21 -13z"/>
<path d="M3387 2857 c-3 -8 3 -14 16 -15 12 0 17 2 12 6 -6 4 -13 11 -16 15
-4 4 -9 2 -12 -6z"/>
<path d="M1196 2282 c-13 -13 -4 -24 15 -19 15 4 18 2 10 -7 -8 -10 -4 -16 17
-24 21 -9 23 -9 10 0 -14 10 -15 13 -2 23 12 8 9 12 -15 22 -16 6 -32 8 -35 5z"/>
<path d="M3141 2231 c-1 -34 2 -42 11 -33 8 8 8 20 1 44 l-11 33 -1 -44z"/>
<path d="M1921 1864 c0 -11 3 -14 6 -6 3 7 2 16 -1 19 -3 4 -6 -2 -5 -13z"/>
<path d="M1930 1828 c0 -23 12 -58 19 -58 10 0 1 59 -10 66 -5 3 -9 -1 -9 -8z"/>
<path d="M3898 1873 c7 -3 16 -2 19 1 4 3 -2 6 -13 5 -11 0 -14 -3 -6 -6z"/>
<path d="M1478 2163 c7 -3 16 -2 19 1 4 3 -2 6 -13 5 -11 0 -14 -3 -6 -6z"/>
<path d="M3315 1928 c-22 -6 -42 -12 -44 -14 -2 -2 7 -29 19 -60 22 -54 24
-56 54 -50 77 15 109 76 60 115 -29 23 -32 23 -89 9z"/>
<path d="M3403 1697 c-50 -12 -54 -27 -23 -94 17 -40 20 -42 48 -34 91 27 126
77 82 121 -22 22 -42 23 -107 7z"/>
<path d="M2583 1637 c-18 -7 -34 -14 -35 -17 -1 -3 7 -33 17 -67 13 -43 24
-63 34 -63 24 0 78 36 91 59 14 27 3 68 -23 86 -25 17 -40 18 -84 2z"/>
<path d="M2210 1346 l0 -66 44 22 c24 11 42 26 39 32 -3 6 -23 26 -44 45 l-39
33 0 -66z"/>
<path d="M1817 1114 c-12 -25 -15 -40 -8 -46 6 -4 9 -5 6 -2 -2 4 3 20 11 36
8 16 14 34 12 39 -2 6 -12 -6 -21 -27z"/>
<path d="M1635 880 c-19 -8 -19 -9 3 -9 12 -1 22 4 22 9 0 6 -1 10 -2 9 -2 0
-12 -4 -23 -9z"/>
<path d="M4342 3838 c-7 -7 -12 -22 -12 -34 0 -12 -11 -29 -25 -38 -13 -9 -28
-31 -33 -49 -8 -29 -12 -32 -58 -38 -49 -6 -123 -38 -156 -66 -12 -11 -21 -12
-37 -4 -11 6 -34 11 -51 11 -17 0 -41 7 -53 15 -13 8 -32 12 -45 8 -21 -5 -23
-10 -17 -47 4 -22 11 -45 15 -50 14 -14 62 3 67 24 6 21 14 23 51 14 28 -8 28
-27 1 -66 -12 -16 -27 -48 -34 -71 -10 -36 -16 -41 -41 -42 -40 0 -42 -38 -3
-43 23 -3 27 -9 33 -50 8 -58 52 -138 101 -180 27 -24 32 -34 21 -38 -23 -9
-127 2 -176 20 -45 15 -59 10 -60 -20 0 -20 129 -55 194 -53 l60 3 2 -35 c2
-19 10 -54 18 -78 19 -53 19 -51 1 -51 -8 0 -17 11 -21 25 -7 27 -24 34 -24
11 0 -21 -20 -30 -33 -17 -19 19 -26 12 -20 -24 7 -42 -13 -49 -23 -7 -4 15
-13 40 -21 56 -19 37 -4 55 28 32 35 -24 44 -20 62 24 18 46 8 52 -22 13 -21
-27 -21 -28 -36 -9 -15 20 -16 20 -68 1 -28 -10 -58 -22 -64 -28 -18 -13 -16
-68 2 -94 8 -12 12 -28 9 -37 -11 -29 36 -36 112 -16 38 10 70 23 72 29 2 5 9
8 16 5 7 -3 40 4 72 15 74 27 88 26 127 -3 18 -13 51 -30 75 -37 23 -7 60 -28
82 -46 22 -19 44 -32 49 -29 5 3 12 27 16 52 3 26 19 63 33 83 15 21 38 61 51
89 14 29 29 52 35 52 6 1 36 12 66 26 49 22 51 24 20 20 -19 -3 -45 -8 -57
-12 -19 -5 -22 0 -33 53 -7 32 -19 70 -26 85 -18 35 -18 35 10 42 98 24 176
226 132 340 -9 24 -24 50 -34 59 -42 37 -139 28 -181 -17 l-23 -24 -45 28
c-24 16 -63 32 -86 35 -65 11 -69 16 -46 54 18 29 24 32 52 27 45 -8 77 15 77
58 0 40 -15 56 -55 56 -17 0 -36 -5 -43 -12z m68 -38 c0 -25 -29 -38 -41 -19
-15 25 -10 39 16 39 18 0 25 -5 25 -20z m-134 -171 c4 -7 10 -7 16 -1 15 15
85 -5 132 -36 56 -38 108 -138 102 -196 -16 -143 -67 -225 -172 -273 -164 -75
-356 31 -380 210 -11 77 17 145 88 221 35 36 74 70 88 75 34 13 117 13 126 0z
m384 -19 c20 -11 40 -66 40 -111 0 -54 -31 -132 -65 -162 -18 -16 -32 -34 -29
-41 4 -10 -54 -51 -62 -43 -3 2 3 20 11 40 27 66 9 214 -30 247 -22 18 -19 27
22 55 39 26 81 32 113 15z m-755 -20 c0 -22 -29 -18 -33 3 -3 14 1 18 15 15
10 -2 18 -10 18 -18z m661 -436 l16 -43 -35 -41 c-61 -72 -110 -100 -215 -127
-54 -13 -112 -22 -129 -19 -26 4 -35 0 -44 -16 -17 -31 -25 -8 -33 90 -5 56
-4 82 3 82 6 0 11 -13 11 -30 0 -26 5 -31 43 -41 32 -9 58 -9 111 0 90 15 144
40 200 91 48 44 56 69 31 90 -8 7 -15 19 -15 28 0 27 37 -16 56 -64z m-629
-220 c2 -6 -6 -14 -18 -17 -13 -3 -18 -10 -14 -17 4 -7 16 -9 27 -7 13 4 22
-2 30 -18 14 -30 -4 -55 -38 -55 -30 0 -31 16 -1 24 21 6 20 8 -13 24 -19 9
-36 26 -38 36 -7 34 55 62 65 30z m553 -19 c-39 -47 -131 -68 -180 -40 l-25
14 35 1 c19 0 64 13 100 29 65 28 95 26 70 -4z m-28 -97 c-9 -9 -15 -9 -24 0
-9 9 -7 12 12 12 19 0 21 -3 12 -12z"/>
<path d="M4210 3601 c0 -22 -7 -35 -25 -47 -28 -18 -55 -13 -55 11 0 8 -5 15
-11 15 -6 0 -9 -12 -7 -27 3 -24 8 -28 39 -31 47 -4 80 23 82 67 1 19 -3 36
-10 38 -9 3 -13 -6 -13 -26z"/>
<path d="M4309 3596 c-26 -13 -37 -36 -16 -36 22 0 77 21 77 30 0 14 -38 18
-61 6z"/>
<path d="M4308 3535 c-28 -19 -38 -35 -48 -74 -6 -28 -9 -55 -5 -61 3 -5 2
-10 -3 -10 -5 0 -14 11 -19 23 -16 34 -77 61 -122 53 -55 -8 -101 -63 -101
-119 0 -48 30 -102 65 -120 11 -6 27 -14 35 -18 16 -7 16 -12 5 -41 -6 -14 -2
-18 19 -18 28 0 36 26 15 47 -8 8 1 16 33 31 50 22 78 66 78 124 l0 33 20 -31
c12 -18 33 -37 49 -44 57 -23 151 28 151 82 0 11 4 27 10 37 14 28 -23 94 -66
114 -47 23 -73 21 -116 -8z m135 -46 c58 -63 15 -159 -72 -159 -22 0 -43 5
-46 10 -4 6 -10 8 -15 5 -12 -8 -40 48 -40 80 0 36 27 84 53 95 37 15 90 2
120 -31z m-238 -74 c19 -19 25 -35 25 -71 0 -39 -5 -51 -34 -80 -45 -45 -74
-44 -126 4 -44 43 -50 73 -25 122 20 38 41 49 93 50 32 0 49 -6 67 -25z"/>
<path d="M4310 3480 c-21 -21 -26 -76 -11 -115 8 -19 8 -19 20 3 14 26 31 21
31 -10 0 -17 4 -19 27 -13 42 10 56 25 42 42 -9 11 -9 17 0 26 9 9 14 9 21 -3
8 -12 10 -9 10 11 0 15 -7 32 -15 39 -12 10 -15 10 -15 -3 0 -20 -14 -29 -33
-21 -23 8 -28 32 -11 49 14 13 12 15 -15 15 -18 0 -40 -9 -51 -20z"/>
<path d="M4087 3409 c-24 -14 -47 -70 -40 -97 4 -17 10 -20 35 -15 27 5 30 4
23 -16 -5 -18 -2 -21 23 -21 43 0 82 35 82 73 0 43 -15 67 -23 37 -4 -16 -12
-21 -29 -18 -19 2 -23 9 -23 36 0 34 -14 41 -48 21z m111 -100 c-2 -6 -8 -10
-13 -10 -5 0 -11 4 -13 10 -2 6 4 11 13 11 9 0 15 -5 13 -11z"/>
<path d="M4043 3484 c-19 -19 -23 -29 -14 -32 7 -2 24 7 38 21 16 16 21 27 14
31 -6 4 -23 -5 -38 -20z"/>
<path d="M4427 3293 c-8 -8 -9 -43 -2 -43 15 0 54 33 49 41 -6 11 -38 12 -47
2z"/>
<path d="M4318 3255 c-9 -20 -18 -25 -48 -25 -43 0 -54 -8 -39 -27 32 -38 119
2 119 54 0 30 -18 29 -32 -2z"/>
<path d="M4685 3224 c-80 -34 -78 -48 2 -18 24 9 46 14 49 11 14 -14 16 -80 2
-88 -9 -6 -7 -9 10 -9 26 0 29 -15 5 -29 -36 -20 -5 -20 48 0 78 29 85 39 60
79 -11 19 -18 37 -15 42 3 4 0 17 -6 28 -15 29 -59 24 -155 -16z m140 7 c3 -6
-3 -14 -12 -20 -17 -10 -17 -10 0 -11 20 0 24 -36 5 -43 -7 -3 -1 -6 15 -6 33
-1 36 -17 3 -25 -13 -3 -31 -9 -39 -12 -12 -4 -20 7 -31 47 -20 67 -20 67 7
72 39 8 46 7 52 -2z"/>
<path d="M3572 2578 c-7 -7 -12 -29 -12 -50 0 -21 -4 -38 -10 -38 -5 0 -10
-11 -10 -25 0 -26 26 -46 49 -37 8 2 18 -3 23 -12 11 -19 59 -21 76 -4 7 7 12
20 12 30 0 10 4 18 10 18 16 0 23 49 10 65 -7 8 -25 15 -40 15 -19 0 -30 7
-38 25 -13 27 -49 34 -70 13z"/>
<path d="M292 2304 c-12 -8 -22 -26 -22 -40 0 -13 -6 -24 -13 -24 -16 0 -72
-58 -80 -82 -5 -14 -18 -18 -60 -18 -30 0 -68 -5 -86 -11 -29 -10 -31 -14 -31
-64 0 -60 19 -90 62 -101 21 -5 33 0 54 21 26 26 29 52 9 98 -6 14 -2 17 23
17 19 0 32 -6 36 -17 6 -15 7 -15 19 0 15 22 63 10 129 -32 123 -78 160 -218
96 -368 -53 -122 -150 -193 -265 -193 -32 1 -82 9 -111 19 l-52 18 0 -28 c0
-21 4 -27 15 -22 13 4 15 -1 9 -35 -8 -49 6 -59 94 -68 50 -6 71 -2 130 20 81
31 151 75 187 118 30 36 32 59 5 83 -26 24 -26 39 0 25 12 -6 30 -31 42 -55
l21 -44 -38 -46 c-58 -72 -75 -85 -145 -118 -55 -25 -78 -30 -150 -31 -98 -1
-142 13 -157 52 -11 27 -11 27 -12 -11 -1 -20 5 -47 12 -58 9 -17 9 -23 0 -26
-20 -7 -15 -33 7 -33 10 0 40 -13 65 -29 25 -16 73 -37 106 -47 38 -12 79 -35
111 -62 60 -51 72 -46 87 31 5 28 25 71 48 105 71 100 86 139 91 229 3 60 0
89 -11 111 -15 31 -15 31 24 57 155 102 192 389 59 458 -49 25 -113 16 -162
-23 -43 -35 -51 -36 -69 -13 -18 21 -108 63 -136 63 -33 0 -29 26 9 61 23 21
38 27 53 22 49 -16 85 4 85 48 0 52 -44 74 -88 43z m48 -33 c0 -11 -5 -23 -11
-27 -15 -9 -33 12 -26 30 9 23 37 20 37 -3z m-230 -216 c0 -32 -21 -65 -41
-65 -12 0 -50 62 -46 75 4 12 69 35 80 28 4 -2 7 -19 7 -38z m464 11 c61 -25
87 -140 49 -224 -9 -20 -15 -40 -15 -44 1 -5 -3 -8 -8 -8 -5 0 -9 -6 -7 -12 1
-7 -4 -12 -11 -10 -8 1 -11 -2 -6 -9 4 -6 -11 -28 -35 -50 -44 -41 -79 -53
-66 -21 35 89 29 191 -19 282 l-25 48 22 19 c49 45 71 50 121 29z m-129 -723
c-33 -52 -67 -81 -127 -108 -63 -28 -113 -28 -167 0 -23 12 -20 13 47 25 50 8
100 27 165 60 50 26 94 48 96 49 2 1 -5 -11 -14 -26z m-98 -178 c-4 -8 -13
-15 -22 -15 -21 0 -19 28 3 32 22 5 26 2 19 -17z"/>
<path d="M228 2053 c-10 -2 -18 -11 -18 -19 0 -16 47 -19 70 -4 13 9 13 11 0
20 -16 10 -24 11 -52 3z"/>
<path d="M214 1982 c-74 -62 -69 -188 9 -225 46 -22 72 -21 123 4 34 16 46 29
60 65 16 41 16 47 -1 89 -13 35 -26 50 -56 65 -47 25 -107 25 -135 2z m124
-18 c28 -19 52 -65 52 -99 0 -69 -87 -122 -148 -91 -48 25 -67 69 -52 119 23
78 92 111 148 71z"/>
<path d="M233 1928 c-30 -33 -36 -62 -19 -101 13 -32 42 -64 31 -35 -3 7 -1
20 5 28 7 12 12 12 22 2 10 -10 10 -17 1 -31 -11 -18 -10 -19 20 -10 39 11 57
33 49 61 -4 17 -2 20 11 15 19 -7 23 18 8 42 -8 12 -12 12 -26 -3 -13 -13 -20
-14 -31 -5 -16 13 -19 39 -3 39 5 0 7 5 4 10 -11 18 -51 11 -72 -12z"/>
<path d="M0 1896 c0 -9 8 -16 20 -16 40 0 77 -28 94 -71 29 -72 -3 -140 -75
-159 -41 -11 -53 -30 -19 -30 11 0 36 6 55 14 117 49 89 248 -37 271 -31 6
-38 4 -38 -9z"/>
<path d="M1458 1853 c-13 -15 -48 -87 -48 -99 0 -2 17 -15 37 -29 55 -37 76
-33 112 21 36 52 32 69 -23 103 -41 26 -58 26 -78 4z"/>
<path d="M0 1755 l0 -95 37 15 c70 29 87 69 56 128 l-17 32 -6 -25 c-4 -18
-14 -26 -34 -28 -28 -3 -28 -2 -22 32 4 23 3 36 -4 36 -6 0 -10 -36 -10 -95z
m88 -22 c6 -19 -28 -29 -39 -12 -5 8 -9 18 -9 22 0 13 43 3 48 -10z"/>
<path d="M352 1738 c-17 -17 -15 -47 4 -55 23 -9 51 23 38 44 -14 22 -27 26
-42 11z"/>
<path d="M245 1696 c-3 -9 -7 -23 -10 -31 -7 -23 -34 -30 -66 -18 -25 10 -29
9 -29 -6 0 -26 21 -41 57 -41 42 0 85 42 81 79 -3 28 -26 40 -33 17z"/>
<path d="M14 1585 c-8 -21 2 -45 20 -45 22 0 60 35 52 48 -10 17 -66 15 -72
-3z"/>
</g>
</svg>
